<svg fill="#2a3b71" width="150" height="150" xmlns="http://www.w3.org/2000/svg" xmlns:xlink="http://www.w3.org/1999/xlink" version="1.1" x="0px" y="0px" viewBox="0 0 100 100" style="enable-background:new 0 0 100 100;" xml:space="preserve"><g><path d="M45.229,45.223c-0.488-0.488-1.279-0.488-1.768,0l-3.894,3.893c-0.234,0.234-0.366,0.552-0.366,0.884   c0,0.331,0.132,0.649,0.366,0.884l3.894,3.894c0.244,0.244,0.563,0.366,0.884,0.366s0.64-0.122,0.884-0.366   c0.488-0.488,0.488-1.279,0-1.768L42.22,50l3.01-3.009C45.718,46.503,45.718,45.711,45.229,45.223z"></path><path d="M60.431,49.116l-3.893-3.893c-0.488-0.488-1.279-0.488-1.768,0c-0.488,0.488-0.488,1.279,0,1.768L57.779,50l-3.009,3.01   c-0.488,0.488-0.488,1.279,0,1.768c0.244,0.244,0.563,0.366,0.884,0.366s0.64-0.122,0.884-0.366l3.893-3.894   C60.919,50.395,60.919,49.604,60.431,49.116z"></path><path d="M52.391,42.866c-0.653-0.218-1.362,0.134-1.583,0.788L46.82,55.552c-0.219,0.655,0.134,1.363,0.788,1.583   c0.132,0.044,0.266,0.064,0.397,0.064c0.522,0,1.01-0.33,1.186-0.853l3.987-11.898C53.397,43.794,53.045,43.085,52.391,42.866z"></path><path d="M50,34c-8.822,0-16,7.177-16,16s7.178,16,16,16s16-7.178,16-16S58.822,34,50,34z M50,63.5c-7.444,0-13.5-6.056-13.5-13.5   c0-7.444,6.056-13.5,13.5-13.5S63.5,42.556,63.5,50C63.5,57.444,57.444,63.5,50,63.5z"></path></g></svg>