<svg fill="#2A3B71" width="120" height="120" xmlns="http://www.w3.org/2000/svg" xmlns:xlink="http://www.w3.org/1999/xlink" version="1.1" x="0px" y="0px" viewBox="0 0 100 100" style="enable-background:new 0 0 100 100;" xml:space="preserve"><path d="M80,74H55c-0.035,0-0.065,0.016-0.099,0.02C54.51,72.052,52.965,70.5,51,70.101V64h24c0.552,0,1-0.448,1-1V53  c0-0.552-0.448-1-1-1H51v-4h24c0.552,0,1-0.448,1-1V37c0-0.552-0.448-1-1-1H51v-4h24c0.552,0,1-0.448,1-1V21c0-0.552-0.448-1-1-1H25  c-0.552,0-1,0.448-1,1v10c0,0.552,0.448,1,1,1h24v4H25c-0.552,0-1,0.448-1,1v10c0,0.552,0.448,1,1,1h24v4H25c-0.552,0-1,0.448-1,1  v10c0,0.552,0.448,1,1,1h24v6.101c-1.965,0.399-3.51,1.951-3.901,3.919C45.065,74.016,45.035,74,45,74H20c-0.552,0-1,0.448-1,1  s0.448,1,1,1h25c0.035,0,0.065-0.016,0.099-0.02C45.555,78.272,47.574,80,50,80s4.445-1.728,4.901-4.02  C54.935,75.984,54.965,76,55,76h25c0.553,0,1-0.448,1-1S80.553,74,80,74z M33,27h-4v-2h4V27z M39,27h-4v-2h4V27z M43,27v-2h8v2H43z   M33,43h-4v-2h4V43z M39,43h-4v-2h4V43z M43,43v-2h8v2H43z M33,59h-4v-2h4V59z M39,59h-4v-2h4V59z M43,57h8v2h-8V57z M50,77  c-1.105,0-2-0.895-2-2c0-1.105,0.895-2,2-2s2,0.895,2,2C52,76.105,51.105,77,50,77z"></path></svg>